<?xml version="1.0" encoding="UTF-8" standalone="no"?>
<!-- Created with Inkscape (http://www.inkscape.org/) -->

<svg
   version="1.1"
   id="svg2"
   xml:space="preserve"
   width="212.16"
   height="115.2"
   viewBox="0 0 212.16 115.2"
   sodipodi:docname="fogros2_dexnet_example.pdf"
   xmlns:inkscape="http://www.inkscape.org/namespaces/inkscape"
   xmlns:sodipodi="http://sodipodi.sourceforge.net/DTD/sodipodi-0.dtd"
   xmlns="http://www.w3.org/2000/svg"
   xmlns:svg="http://www.w3.org/2000/svg"><defs
     id="defs6" /><sodipodi:namedview
     id="namedview4"
     pagecolor="#ffffff"
     bordercolor="#666666"
     borderopacity="1.0"
     inkscape:pageshadow="2"
     inkscape:pageopacity="0.0"
     inkscape:pagecheckerboard="0" /><g
     id="g8"
     inkscape:groupmode="layer"
     inkscape:label="fogros2_dexnet_example"
     transform="matrix(1.3333333,0,0,-1.3333333,0,115.2)"><text
       transform="matrix(1,0,0,-1,155.634,86.4)"
       style="font-variant:normal;font-size:6.9738px;font-family:NimbusRomNo9L;-inkscape-font-specification:NimbusRomNo9L-Regu;writing-mode:lr-tb;fill:#000000;fill-opacity:1;fill-rule:nonzero;stroke:none"
       id="text12"><tspan
         x="0"
         y="0"
         id="tspan10">1</tspan></text><g
       id="g14"
       transform="translate(13.462,75.465)"><g
         id="g16"><g
           id="g18"><g
             id="g20"><g
               id="g22"><path
                 d="M 27.64972,6.2834 H -9.27821 c -2.20095,0 -3.98511,-1.78416 -3.98511,-3.9851 v -63.17765 c 0,-2.20094 1.78416,-3.98511 3.98511,-3.98511 h 36.92793 c 2.20094,0 3.98511,1.78417 3.98511,3.98511 V 2.2983 c 0,2.20094 -1.78417,3.9851 -3.98511,3.9851 z"
                 style="fill:#e6e6e6;fill-opacity:1;fill-rule:nonzero;stroke:#000000;stroke-width:0.3985;stroke-linecap:butt;stroke-linejoin:miter;stroke-miterlimit:10;stroke-dasharray:none;stroke-opacity:1"
                 id="path24" /></g><g
               id="g26"
               transform="translate(-9.942,-29.291)"><g
                 id="g28" /><g
                 id="g30"
                 transform="translate(9.942,29.291)" /></g></g><g
             id="g32"><g
               id="g34"><path
                 d="M 125.68335,-4.90463 H 88.7554 c -2.20094,0 -3.9851,-1.78417 -3.9851,-3.98511 v -46.12271 c 0,-2.20095 1.78416,-3.98511 3.9851,-3.98511 h 36.92795 c 2.20095,0 3.98511,1.78416 3.98511,3.98511 v 46.12271 c 0,2.20094 -1.78416,3.98511 -3.98511,3.98511 z"
                 style="fill:#e6e6e6;fill-opacity:1;fill-rule:nonzero;stroke:#000000;stroke-width:0.3985;stroke-linecap:butt;stroke-linejoin:miter;stroke-miterlimit:10;stroke-dasharray:none;stroke-opacity:1"
                 id="path36" /></g><g
               id="g38"
               transform="translate(88.09,-31.951)"><g
                 id="g40" /><g
                 id="g42"
                 transform="translate(-88.09,31.951)" /></g></g><path
             d="m 77.66862,-49.01283 c -10.84445,1.67882 -11.35182,25.89969 -0.58717,28.031 -6.16409,0.42476 -7.60631,14.01198 -1.66862,15.72101 1.78781,7.91849 13.88177,11.68016 19.84549,6.17261 4.16909,8.68266 19.16882,9.82429 24.60363,1.87241 3.50899,4.79995 12.72657,3.80345 15.12895,-1.63543 11.73577,-5.49362 13.47257,-25.68324 2.84702,-33.09987 7.79208,-5.33908 6.65509,-20.0501 -1.86473,-24.12869 -0.32594,-7.40648 -10.54152,-12.71977 -16.79274,-8.73422 -2.78585,-6.5665 -13.8555,-7.92789 -18.14931,-2.23201 -2.9617,-4.3904 -11.20657,-3.81332 -13.52792,0.94678 -7.71352,0.0102 -13.70022,10.41144 -9.8346,17.08641 z"
             style="fill:none;stroke:#000000;stroke-width:0.3985;stroke-linecap:butt;stroke-linejoin:miter;stroke-miterlimit:10;stroke-dasharray:none;stroke-opacity:1"
             id="path44" /></g><g
           id="g46"><g
             id="g48"><g
               id="g50"
               transform="translate(-9.743,-2.672)"><g
                 id="g52"><g
                   id="g54"
                   transform="translate(-3.719,-72.793)"><text
                     transform="matrix(1,0,0,-1,3.719,72.793)"
                     style="font-variant:normal;font-size:7.9701px;font-family:NimbusRomNo9L;-inkscape-font-specification:NimbusRomNo9L-Regu;writing-mode:lr-tb;fill:#000000;fill-opacity:1;fill-rule:nonzero;stroke:none"
                     id="text58"><tspan
                       x="0 5.3160567 9.3011065 13.286157 17.271206"
                       y="0"
                       sodipodi:role="line"
                       id="tspan56">Robot</tspan></text><g
                     id="g60"
                     transform="translate(3.719,72.793)" /></g></g><g
                 id="g62"
                 transform="translate(9.743,2.672)" /></g></g><g
             id="g64"><g
               id="g66"><path
                 d="M 24.1299,-7.14719 H -5.75839 c -2.20095,0 -3.98511,-1.78416 -3.98511,-3.98511 v -15.94042 c 0,-2.20095 1.78416,-3.98511 3.98511,-3.98511 H 24.1299 c 2.20094,0 3.9851,1.78416 3.9851,3.98511 v 15.94042 c 0,2.20095 -1.78416,3.98511 -3.9851,3.98511 z"
                 style="fill:#fffee6;fill-opacity:1;fill-rule:nonzero;stroke:#000000;stroke-width:0.3985;stroke-linecap:butt;stroke-linejoin:miter;stroke-miterlimit:10;stroke-dasharray:none;stroke-opacity:1"
                 id="path68" /></g><g
               id="g70"
               transform="translate(-9.743,-19.301)"><g
                 id="g72"><g
                   id="g74"
                   transform="translate(-3.719,-56.164)"><text
                     transform="matrix(1,0,0,-0.98039216,10.007,56.164)"
                     style="font-variant:normal;font-size:8.1295px;font-family:NimbusRomNo9L;-inkscape-font-specification:NimbusRomNo9L-Regu;writing-mode:lr-tb;fill:#000000;fill-opacity:1;fill-rule:nonzero;stroke:none"
                     id="text78"><tspan
                       x="0 5.4223781 9.0318766 15.356629 18.966127 21.673252"
                       y="0"
                       sodipodi:role="line"
                       id="tspan76">Camera</tspan></text><text
                     transform="matrix(1,0,0,-0.98039216,17.145,51.183)"
                     style="font-variant:normal;font-size:5.08093px;font-family:NimbusRomNo9L;-inkscape-font-specification:NimbusRomNo9L-Regu;writing-mode:lr-tb;fill:#000000;fill-opacity:1;fill-rule:nonzero;stroke:none"
                     id="text82"><tspan
                       x="0 3.6684287 6.2088914 8.7493544"
                       y="0"
                       sodipodi:role="line"
                       id="tspan80">Node</tspan></text><g
                     id="g84"
                     transform="translate(3.719,56.164)" /></g></g><g
                 id="g86"
                 transform="translate(9.743,19.301)" /></g></g><g
             id="g88"><g
               id="g90"><path
                 d="M 24.1299,-37.43399 H -5.75839 c -2.20095,0 -3.98511,-1.78418 -3.98511,-3.98511 v -15.94043 c 0,-2.20094 1.78416,-3.98511 3.98511,-3.98511 H 24.1299 c 2.20094,0 3.9851,1.78417 3.9851,3.98511 v 15.94043 c 0,2.20093 -1.78416,3.98511 -3.9851,3.98511 z"
                 style="fill:#fffee6;fill-opacity:1;fill-rule:nonzero;stroke:#000000;stroke-width:0.3985;stroke-linecap:butt;stroke-linejoin:miter;stroke-miterlimit:10;stroke-dasharray:none;stroke-opacity:1"
                 id="path92" /></g><g
               id="g94"
               transform="translate(-9.743,-49.588)"><g
                 id="g96"><g
                   id="g98"
                   transform="translate(-3.719,-25.877)"><text
                     transform="matrix(1,0,0,-0.98039216,7.747,25.877)"
                     style="font-variant:normal;font-size:8.1295px;font-family:NimbusRomNo9L;-inkscape-font-specification:NimbusRomNo9L-Regu;writing-mode:lr-tb;fill:#000000;fill-opacity:1;fill-rule:nonzero;stroke:none"
                     id="text102"><tspan
                       x="0 5.8695006 8.5766249 12.186124 15.3485 19.41325 21.673252 25.738003"
                       y="0"
                       sodipodi:role="line"
                       id="tspan100">Grasping</tspan></text><text
                     transform="matrix(1,0,0,-0.98039216,17.145,20.896)"
                     style="font-variant:normal;font-size:5.08093px;font-family:NimbusRomNo9L;-inkscape-font-specification:NimbusRomNo9L-Regu;writing-mode:lr-tb;fill:#000000;fill-opacity:1;fill-rule:nonzero;stroke:none"
                     id="text106"><tspan
                       x="0 3.6684287 6.2088914 8.7493544"
                       y="0"
                       sodipodi:role="line"
                       id="tspan104">Node</tspan></text><g
                     id="g108"
                     transform="translate(3.719,25.877)" /></g></g><g
                 id="g110"
                 transform="translate(9.743,49.588)" /></g></g><g
             id="g112"><g
               id="g114"
               transform="translate(88.289,-13.749)"><g
                 id="g116"><g
                   id="g118"
                   transform="translate(-101.751,-61.716)"><text
                     transform="matrix(1,0,0,-1,101.751,61.716)"
                     style="font-variant:normal;font-size:7.9701px;font-family:NimbusRomNo9L;-inkscape-font-specification:NimbusRomNo9L-Regu;writing-mode:lr-tb;fill:#000000;fill-opacity:1;fill-rule:nonzero;stroke:none"
                     id="text122"><tspan
                       x="0 2.6540432 6.6390934 9.7394619 11.95515 15.493875 19.478924 23.017649"
                       y="0"
                       sodipodi:role="line"
                       id="tspan120">Instance</tspan></text><g
                     id="g124"
                     transform="translate(101.751,61.716)" /></g></g><g
                 id="g126"
                 transform="translate(-88.289,13.749)" /></g></g><g
             id="g128"><g
               id="g130"><path
                 d="M 122.16353,-18.22374 H 92.27522 c -2.20094,0 -3.9851,-1.78416 -3.9851,-3.98511 v -19.44069 c 0,-2.20094 1.78416,-3.9851 3.9851,-3.9851 h 29.88831 c 2.20094,0 3.98511,1.78416 3.98511,3.9851 v 19.44069 c 0,2.20095 -1.78417,3.98511 -3.98511,3.98511 z"
                 style="fill:#fffee6;fill-opacity:1;fill-rule:nonzero;stroke:#000000;stroke-width:0.3985;stroke-linecap:butt;stroke-linejoin:miter;stroke-miterlimit:10;stroke-dasharray:none;stroke-opacity:1"
                 id="path132" /></g><g
               id="g134"
               transform="translate(88.289,-27.645)"><g
                 id="g136"><g
                   id="g138"
                   transform="translate(-101.751,-47.82)"><text
                     transform="matrix(1,0,0,-0.98039216,106.23,47.82)"
                     style="font-variant:normal;font-size:8.1295px;font-family:NimbusRomNo9L;-inkscape-font-specification:NimbusRomNo9L-Regu;writing-mode:lr-tb;fill:#000000;fill-opacity:1;fill-rule:nonzero;stroke:none"
                     id="text142"><tspan
                       x="0 5.8695006 11.739001 17.161379 23.03088"
                       y="0"
                       sodipodi:role="line"
                       id="tspan140">GQCNN</tspan></text><text
                     transform="matrix(1,0,0,-0.98039216,108.825,38.854)"
                     style="font-variant:normal;font-size:8.1295px;font-family:NimbusRomNo9L;-inkscape-font-specification:NimbusRomNo9L-Regu;writing-mode:lr-tb;fill:#000000;fill-opacity:1;fill-rule:nonzero;stroke:none"
                     id="text146"><tspan
                       x="0 5.8695006 9.9342518 13.543751 17.527206 21.136705"
                       y="0"
                       sodipodi:role="line"
                       id="tspan144">Docker</tspan></text><text
                     transform="matrix(1,0,0,-0.98039216,115.178,33.873)"
                     style="font-variant:normal;font-size:5.08093px;font-family:NimbusRomNo9L;-inkscape-font-specification:NimbusRomNo9L-Regu;writing-mode:lr-tb;fill:#000000;fill-opacity:1;fill-rule:nonzero;stroke:none"
                     id="text150"><tspan
                       x="0 3.6684287 6.2088914 8.7493544"
                       y="0"
                       sodipodi:role="line"
                       id="tspan148">Node</tspan></text><g
                     id="g152"
                     transform="translate(101.751,47.82)" /></g></g><g
                 id="g154"
                 transform="translate(-88.289,27.645)" /></g></g><g
             id="g156"><g
               id="g158"><path
                 d="m 28.31425,-18.25227 c 23.55956,1.10835 37.2587,-0.64902 58.40702,-7.23842"
                 style="fill:none;stroke:#0000ff;stroke-width:0.79701;stroke-linecap:butt;stroke-linejoin:miter;stroke-miterlimit:10;stroke-dasharray:none;stroke-opacity:1"
                 id="path160" /><g
                 id="g162"
                 transform="matrix(0.95468,-0.29744,0.29744,0.95468,86.72125,-25.49068)"><g
                   id="g164"><path
                     d="m 1.0361,0 c -1.29512,0.25902 -2.59025,0.77707 -4.1444,1.68365 1.55415,-1.1656 1.55415,-2.2017 0,-3.3673 1.55415,0.90658 2.84928,1.42463 4.1444,1.68365 z"
                     style="fill:#0000ff;fill-opacity:1;fill-rule:nonzero;stroke:#0000ff;stroke-width:0.79701;stroke-linecap:butt;stroke-linejoin:round;stroke-miterlimit:10;stroke-dasharray:none;stroke-opacity:1"
                     id="path166" /></g></g><g
                 id="g168"><g
                   id="g170" /><g
                   id="g172"
                   transform="translate(29.849,-26.19)"><g
                     id="g174"><g
                       id="g176"
                       transform="translate(-43.311,-49.275)"><text
                         transform="matrix(1,0,0,-1,43.311,60.233)"
                         style="font-variant:normal;font-size:7.9701px;font-family:NimbusRomNo9L;-inkscape-font-specification:NimbusRomNo9L-Regu;writing-mode:lr-tb;fill:#000000;fill-opacity:1;fill-rule:nonzero;stroke:none"
                         id="text180"><tspan
                           x="0 5.3160567 8.8547812 15.055519 18.594244 21.248287 27.576546 31.80867 35.79372 39.77877 41.994457"
                           y="0"
                           sodipodi:role="line"
                           id="tspan178">CameraTopic</tspan></text><text
                         transform="matrix(1,0,0,-1,56.729,49.275)"
                         style="font-variant:normal;font-size:6.9738px;font-family:NimbusRomNo9L;-inkscape-font-specification:NimbusRomNo9L-Medi;writing-mode:lr-tb;fill:#0000ff;fill-opacity:1;fill-rule:nonzero;stroke:none"
                         id="text184"><tspan
                           x="0 3.8774328 5.620883 9.1077824 12.594683"
                           y="0"
                           sodipodi:role="line"
                           id="tspan182">h.264</tspan></text><g
                         id="g186"
                         transform="translate(43.311,49.275)" /></g></g><g
                     id="g188"
                     transform="translate(-29.849,26.19)" /></g></g></g></g><g
             id="g190"><g
               id="g192"><path
                 d="M 88.09087,-38.92638 C 65.82498,-46.98471 51.99344,-49.39911 29.74883,-49.3589"
                 style="fill:none;stroke:#000000;stroke-width:0.79701;stroke-linecap:butt;stroke-linejoin:miter;stroke-miterlimit:10;stroke-dasharray:none;stroke-opacity:1"
                 id="path194" /><g
                 id="g196"
                 transform="matrix(-0.99997,0.00179,-0.00179,-0.99997,29.74884,-49.35892)"><g
                   id="g198"><path
                     d="m 1.0361,0 c -1.29512,0.25902 -2.59025,0.77707 -4.1444,1.68365 1.55415,-1.1656 1.55415,-2.2017 0,-3.3673 1.55415,0.90658 2.84928,1.42463 4.1444,1.68365 z"
                     style="fill:#000000;fill-opacity:1;fill-rule:nonzero;stroke:#000000;stroke-width:0.79701;stroke-linecap:butt;stroke-linejoin:round;stroke-miterlimit:10;stroke-dasharray:none;stroke-opacity:1"
                     id="path200" /></g></g><g
                 id="g202"><g
                   id="g204" /><g
                   id="g206"
                   transform="translate(45.231,-53.517)"><g
                     id="g208"><g
                       id="g210"
                       transform="translate(-58.693,-21.948)"><text
                         transform="matrix(1,0,0,-1,58.693,30.914)"
                         style="font-variant:normal;font-size:7.9701px;font-family:NimbusRomNo9L;-inkscape-font-specification:NimbusRomNo9L-Regu;writing-mode:lr-tb;fill:#000000;fill-opacity:1;fill-rule:nonzero;stroke:none"
                         id="text216"><tspan
                           x="0 5.7544122 8.4084558 11.94718 15.047549"
                           y="0"
                           sodipodi:role="line"
                           id="tspan212">Grasp</tspan><tspan
                           x="0.53799999 4.770123 8.7551727 12.740223 14.955911"
                           y="8.9659996"
                           sodipodi:role="line"
                           id="tspan214">Topic</tspan></text><g
                         id="g218"
                         transform="translate(58.693,21.948)" /></g></g><g
                     id="g220"
                     transform="translate(-45.231,53.517)" /></g></g></g></g><g
             id="g222"><g
               id="g224"><path
                 d="M 124.15608,-48.0257 H 90.28267 c -1.10047,0 -1.99255,-0.89209 -1.99255,-1.99255 v -3.46693 c 0,-1.10048 0.89208,-1.99256 1.99255,-1.99256 h 33.87341 c 1.10048,0 1.99256,0.89208 1.99256,1.99256 v 3.46693 c 0,1.10046 -0.89208,1.99255 -1.99256,1.99255 z"
                 style="fill:#b3ffb3;fill-opacity:1;fill-rule:nonzero;stroke:#000000;stroke-width:0.3985;stroke-linecap:butt;stroke-linejoin:miter;stroke-miterlimit:10;stroke-dasharray:none;stroke-opacity:1"
                 id="path226" /></g><g
               id="g228"
               transform="translate(90.282,-53.415)"><g
                 id="g230"><g
                   id="g232"
                   transform="translate(-103.744,-22.05)"><text
                     transform="matrix(1,0,0,-0.98039216,115.599,22.05)"
                     style="font-variant:normal;font-size:5.08093px;font-family:NimbusRomNo9L;-inkscape-font-specification:NimbusRomNo9L-Regu;writing-mode:lr-tb;fill:#000000;fill-opacity:1;fill-rule:nonzero;stroke:none"
                     id="text236"><tspan
                       x="0 3.6684287 6.4934235"
                       y="0"
                       sodipodi:role="line"
                       id="tspan234">GPU</tspan></text><g
                     id="g238"
                     transform="translate(103.744,22.05)" /></g></g><g
                 id="g240"
                 transform="translate(-90.282,53.415)" /></g></g></g><g
           id="g242" /></g></g></g></svg>
