<?xml version="1.0" encoding="UTF-8" standalone="no"?>
<!-- Created with Inkscape (http://www.inkscape.org/) -->

<svg
   version="1.1"
   id="svg1865"
   xml:space="preserve"
   width="212.16"
   height="110.4"
   viewBox="0 0 212.16 110.4"
   sodipodi:docname="fogros2_orbslam2_example.pdf"
   xmlns:inkscape="http://www.inkscape.org/namespaces/inkscape"
   xmlns:sodipodi="http://sodipodi.sourceforge.net/DTD/sodipodi-0.dtd"
   xmlns="http://www.w3.org/2000/svg"
   xmlns:svg="http://www.w3.org/2000/svg"><defs
     id="defs1869" /><sodipodi:namedview
     id="namedview1867"
     pagecolor="#ffffff"
     bordercolor="#666666"
     borderopacity="1.0"
     inkscape:pageshadow="2"
     inkscape:pageopacity="0.0"
     inkscape:pagecheckerboard="0" /><g
     id="g1871"
     inkscape:groupmode="layer"
     inkscape:label="fogros2_orbslam2_example"
     transform="matrix(1.3333333,0,0,-1.3333333,0,110.4)"><text
       transform="matrix(1,0,0,-1,155.634,82.8)"
       style="font-variant:normal;font-size:6.9738px;font-family:NimbusRomNo9L;-inkscape-font-specification:NimbusRomNo9L-Regu;writing-mode:lr-tb;fill:#000000;fill-opacity:1;fill-rule:nonzero;stroke:none"
       id="text1875"><tspan
         x="0"
         y="0"
         id="tspan1873">1</tspan></text><g
       id="g1877"
       transform="translate(13.462,72.051)"><g
         id="g1879"><g
           id="g1881"><g
             id="g1883"><g
               id="g1885"><path
                 d="M 27.64972,6.2834 H -9.27821 c -2.20095,0 -3.98511,-1.78416 -3.98511,-3.9851 v -63.17765 c 0,-2.20094 1.78416,-3.98511 3.98511,-3.98511 h 36.92793 c 2.20094,0 3.98511,1.78417 3.98511,3.98511 V 2.2983 c 0,2.20094 -1.78417,3.9851 -3.98511,3.9851 z"
                 style="fill:#e6e6e6;fill-opacity:1;fill-rule:nonzero;stroke:#000000;stroke-width:0.3985;stroke-linecap:butt;stroke-linejoin:miter;stroke-miterlimit:10;stroke-dasharray:none;stroke-opacity:1"
                 id="path1887" /></g><g
               id="g1889"
               transform="translate(-9.942,-29.29)"><g
                 id="g1891" /><g
                 id="g1893"
                 transform="translate(9.942,29.29)" /></g></g><g
             id="g1895"><g
               id="g1897"><path
                 d="M 125.68335,-4.90463 H 88.7554 c -2.20094,0 -3.9851,-1.78417 -3.9851,-3.98511 v -44.61502 c 0,-2.20094 1.78416,-3.98511 3.9851,-3.98511 h 36.92795 c 2.20095,0 3.98511,1.78417 3.98511,3.98511 v 44.61502 c 0,2.20094 -1.78416,3.98511 -3.98511,3.98511 z"
                 style="fill:#e6e6e6;fill-opacity:1;fill-rule:nonzero;stroke:#000000;stroke-width:0.3985;stroke-linecap:butt;stroke-linejoin:miter;stroke-miterlimit:10;stroke-dasharray:none;stroke-opacity:1"
                 id="path1899" /></g><g
               id="g1901"
               transform="translate(88.09,-31.197)"><g
                 id="g1903" /><g
                 id="g1905"
                 transform="translate(-88.09,31.197)" /></g></g><path
             d="m 77.66862,-48.25897 c -10.84445,1.67882 -11.35182,25.89969 -0.58717,28.031 -6.16409,0.42477 -7.60631,14.01198 -1.66862,15.721 2.09434,7.8562 14.36335,11.16063 20.11985,5.41876 4.06145,8.496 18.72786,9.63771 24.05489,1.87241 3.40117,4.80809 12.52249,3.96543 14.98583,-1.38411 11.67765,-5.2685 13.66604,-25.11847 3.26452,-32.59734 7.79208,-5.33907 6.65509,-20.05009 -1.86473,-24.12869 -0.63501,-7.34522 -11.02351,-12.20294 -17.06712,-7.98036 -2.7162,-6.45197 -13.51255,-7.81032 -17.74201,-2.23201 -2.9023,-4.28763 -10.96356,-3.71052 -13.22558,0.94677 -7.53756,-0.28453 -13.79224,9.6626 -10.26986,16.33257 z"
             style="fill:none;stroke:#000000;stroke-width:0.3985;stroke-linecap:butt;stroke-linejoin:miter;stroke-miterlimit:10;stroke-dasharray:none;stroke-opacity:1"
             id="path1907" /></g><g
           id="g1909"><g
             id="g1911"><g
               id="g1913"
               transform="translate(-9.743,-2.672)"><g
                 id="g1915"><g
                   id="g1917"
                   transform="translate(-3.719,-69.379)"><text
                     transform="matrix(1,0,0,-1,3.719,69.379)"
                     style="font-variant:normal;font-size:7.9701px;font-family:NimbusRomNo9L;-inkscape-font-specification:NimbusRomNo9L-Regu;writing-mode:lr-tb;fill:#000000;fill-opacity:1;fill-rule:nonzero;stroke:none"
                     id="text1921"><tspan
                       x="0 5.3160567 9.3011065 13.286157 17.271206"
                       y="0"
                       sodipodi:role="line"
                       id="tspan1919">Robot</tspan></text><g
                     id="g1923"
                     transform="translate(3.719,69.379)" /></g></g><g
                 id="g1925"
                 transform="translate(9.743,2.672)" /></g></g><g
             id="g1927"><g
               id="g1929"><path
                 d="M 24.1299,-7.14719 H -5.75839 c -2.20095,0 -3.98511,-1.78416 -3.98511,-3.98511 v -15.94042 c 0,-2.20095 1.78416,-3.98511 3.98511,-3.98511 H 24.1299 c 2.20094,0 3.9851,1.78416 3.9851,3.98511 v 15.94042 c 0,2.20095 -1.78416,3.98511 -3.9851,3.98511 z"
                 style="fill:#fffee6;fill-opacity:1;fill-rule:nonzero;stroke:#000000;stroke-width:0.3985;stroke-linecap:butt;stroke-linejoin:miter;stroke-miterlimit:10;stroke-dasharray:none;stroke-opacity:1"
                 id="path1931" /></g><g
               id="g1933"
               transform="translate(-9.743,-19.301)"><g
                 id="g1935"><g
                   id="g1937"
                   transform="translate(-3.719,-52.75)"><text
                     transform="matrix(1,0,0,-0.98039216,10.007,52.75)"
                     style="font-variant:normal;font-size:8.1295px;font-family:NimbusRomNo9L;-inkscape-font-specification:NimbusRomNo9L-Regu;writing-mode:lr-tb;fill:#000000;fill-opacity:1;fill-rule:nonzero;stroke:none"
                     id="text1941"><tspan
                       x="0 5.4223781 9.0318766 15.356629 18.966127 21.673252"
                       y="0"
                       sodipodi:role="line"
                       id="tspan1939">Camera</tspan></text><text
                     transform="matrix(1,0,0,-0.98039216,17.145,47.769)"
                     style="font-variant:normal;font-size:5.08093px;font-family:NimbusRomNo9L;-inkscape-font-specification:NimbusRomNo9L-Regu;writing-mode:lr-tb;fill:#000000;fill-opacity:1;fill-rule:nonzero;stroke:none"
                     id="text1945"><tspan
                       x="0 3.6684287 6.2088914 8.7493544"
                       y="0"
                       sodipodi:role="line"
                       id="tspan1943">Node</tspan></text><g
                     id="g1947"
                     transform="translate(3.719,52.75)" /></g></g><g
                 id="g1949"
                 transform="translate(9.743,19.301)" /></g></g><g
             id="g1951"><g
               id="g1953"><path
                 d="M 24.1299,-37.43399 H -5.75839 c -2.20095,0 -3.98511,-1.78418 -3.98511,-3.98511 v -15.94043 c 0,-2.20094 1.78416,-3.98511 3.98511,-3.98511 H 24.1299 c 2.20094,0 3.9851,1.78417 3.9851,3.98511 v 15.94043 c 0,2.20093 -1.78416,3.98511 -3.9851,3.98511 z"
                 style="fill:#fffee6;fill-opacity:1;fill-rule:nonzero;stroke:#000000;stroke-width:0.3985;stroke-linecap:butt;stroke-linejoin:miter;stroke-miterlimit:10;stroke-dasharray:none;stroke-opacity:1"
                 id="path1955" /></g><g
               id="g1957"
               transform="translate(-9.743,-51.995)"><g
                 id="g1959"><g
                   id="g1961"
                   transform="translate(-3.719,-20.056)"><text
                     transform="matrix(1,0,0,-0.98039216,9.044,20.056)"
                     style="font-variant:normal;font-size:8.1295px;font-family:NimbusRomNo9L;-inkscape-font-specification:NimbusRomNo9L-Regu;writing-mode:lr-tb;fill:#000000;fill-opacity:1;fill-rule:nonzero;stroke:none"
                     id="text1965"><tspan
                       x="0 5.4223781 8.1295023 11.991015 17.860516 21.022892 24.632391"
                       y="0"
                       sodipodi:role="line"
                       id="tspan1963">Browser</tspan></text><g
                     id="g1967"
                     transform="translate(3.719,20.056)" /></g></g><g
                 id="g1969"
                 transform="translate(9.743,51.995)" /></g></g><g
             id="g1971"><g
               id="g1973"
               transform="translate(88.289,-13.748)"><g
                 id="g1975"><g
                   id="g1977"
                   transform="translate(-101.751,-58.303)"><text
                     transform="matrix(1,0,0,-1,101.751,58.303)"
                     style="font-variant:normal;font-size:7.9701px;font-family:NimbusRomNo9L;-inkscape-font-specification:NimbusRomNo9L-Regu;writing-mode:lr-tb;fill:#000000;fill-opacity:1;fill-rule:nonzero;stroke:none"
                     id="text1981"><tspan
                       x="0 2.6540432 6.6390934 9.7394619 11.95515 15.493875 19.478924 23.017649"
                       y="0"
                       sodipodi:role="line"
                       id="tspan1979">Instance</tspan></text><g
                     id="g1983"
                     transform="translate(101.751,58.303)" /></g></g><g
                 id="g1985"
                 transform="translate(-88.289,13.748)" /></g></g><g
             id="g1987"><g
               id="g1989"><path
                 d="M 122.16353,-18.22374 H 92.27522 c -2.20094,0 -3.9851,-1.78416 -3.9851,-3.98511 v -15.94043 c 0,-2.20094 1.78416,-3.9851 3.9851,-3.9851 h 29.88831 c 2.20094,0 3.98511,1.78416 3.98511,3.9851 v 15.94043 c 0,2.20095 -1.78417,3.98511 -3.98511,3.98511 z"
                 style="fill:#fffee6;fill-opacity:1;fill-rule:nonzero;stroke:#000000;stroke-width:0.3985;stroke-linecap:butt;stroke-linejoin:miter;stroke-miterlimit:10;stroke-dasharray:none;stroke-opacity:1"
                 id="path1991" /></g><g
               id="g1993"
               transform="translate(88.289,-30.377)"><g
                 id="g1995"><g
                   id="g1997"
                   transform="translate(-101.751,-41.674)"><text
                     transform="matrix(1,0,0,-0.98039216,109.389,41.674)"
                     style="font-variant:normal;font-size:8.1295px;font-family:NimbusRomNo9L;-inkscape-font-specification:NimbusRomNo9L-Regu;writing-mode:lr-tb;fill:#000000;fill-opacity:1;fill-rule:nonzero;stroke:none"
                     id="text2001"><tspan
                       x="0 4.5200033 9.4871292 15.356629"
                       y="0"
                       sodipodi:role="line"
                       id="tspan1999">SLAM</tspan></text><text
                     transform="matrix(1,0,0,-0.98039216,115.178,36.692)"
                     style="font-variant:normal;font-size:5.08093px;font-family:NimbusRomNo9L;-inkscape-font-specification:NimbusRomNo9L-Regu;writing-mode:lr-tb;fill:#000000;fill-opacity:1;fill-rule:nonzero;stroke:none"
                     id="text2005"><tspan
                       x="0 3.6684287 6.2088914 8.7493544"
                       y="0"
                       sodipodi:role="line"
                       id="tspan2003">Node</tspan></text><g
                     id="g2007"
                     transform="translate(101.751,41.674)" /></g></g><g
                 id="g2009"
                 transform="translate(-88.289,30.377)" /></g></g><g
             id="g2011"><g
               id="g2013"><path
                 d="m 28.31425,-17.91487 c 23.44446,1.50917 37.22977,-0.01805 58.39986,-6.21515"
                 style="fill:none;stroke:#0000ff;stroke-width:0.79701;stroke-linecap:butt;stroke-linejoin:miter;stroke-miterlimit:10;stroke-dasharray:none;stroke-opacity:1"
                 id="path2015" /><g
                 id="g2017"
                 transform="matrix(0.95967,-0.2809,0.2809,0.95967,86.71411,-24.13002)"><g
                   id="g2019"><path
                     d="m 1.0361,0 c -1.29512,0.25902 -2.59025,0.77707 -4.1444,1.68365 1.55415,-1.1656 1.55415,-2.2017 0,-3.3673 1.55415,0.90658 2.84928,1.42463 4.1444,1.68365 z"
                     style="fill:#0000ff;fill-opacity:1;fill-rule:nonzero;stroke:#0000ff;stroke-width:0.79701;stroke-linecap:butt;stroke-linejoin:round;stroke-miterlimit:10;stroke-dasharray:none;stroke-opacity:1"
                     id="path2021" /></g></g><g
                 id="g2023"><g
                   id="g2025" /><g
                   id="g2027"
                   transform="translate(29.795,-25.335)"><g
                     id="g2029"><g
                       id="g2031"
                       transform="translate(-43.257,-46.716)"><text
                         transform="matrix(1,0,0,-1,43.257,57.675)"
                         style="font-variant:normal;font-size:7.9701px;font-family:NimbusRomNo9L;-inkscape-font-specification:NimbusRomNo9L-Regu;writing-mode:lr-tb;fill:#000000;fill-opacity:1;fill-rule:nonzero;stroke:none"
                         id="text2035"><tspan
                           x="0 5.3160567 8.8547812 15.055519 18.594244 21.248287 27.576546 31.80867 35.79372 39.77877 41.994457"
                           y="0"
                           sodipodi:role="line"
                           id="tspan2033">CameraTopic</tspan></text><text
                         transform="matrix(1,0,0,-1,56.675,46.716)"
                         style="font-variant:normal;font-size:6.9738px;font-family:NimbusRomNo9L;-inkscape-font-specification:NimbusRomNo9L-Medi;writing-mode:lr-tb;fill:#0000ff;fill-opacity:1;fill-rule:nonzero;stroke:none"
                         id="text2039"><tspan
                           x="0 3.8774328 5.620883 9.1077824 12.594683"
                           y="0"
                           sodipodi:role="line"
                           id="tspan2037">h.264</tspan></text><g
                         id="g2041"
                         transform="translate(43.257,46.716)" /></g></g><g
                     id="g2043"
                     transform="translate(-29.795,25.335)" /></g></g></g></g><g
             id="g2045"><g
               id="g2047"><path
                 d="M 88.09087,-37.54985 C 65.8773,-46.0176 52.08427,-48.66695 29.74867,-49.00511"
                 style="fill:none;stroke:#000000;stroke-width:0.79701;stroke-linecap:butt;stroke-linejoin:miter;stroke-miterlimit:10;stroke-dasharray:none;stroke-opacity:1"
                 id="path2049" /><g
                 id="g2051"
                 transform="matrix(-0.99986,-0.01514,0.01514,-0.99986,29.74867,-49.0051)"><g
                   id="g2053"><path
                     d="m 1.0361,0 c -1.29512,0.25902 -2.59025,0.77707 -4.1444,1.68365 1.55415,-1.1656 1.55415,-2.2017 0,-3.3673 1.55415,0.90658 2.84928,1.42463 4.1444,1.68365 z"
                     style="fill:#000000;fill-opacity:1;fill-rule:nonzero;stroke:#000000;stroke-width:0.79701;stroke-linecap:butt;stroke-linejoin:round;stroke-miterlimit:10;stroke-dasharray:none;stroke-opacity:1"
                     id="path2055" /></g></g><g
                 id="g2057"><g
                   id="g2059" /><g
                   id="g2061"
                   transform="translate(43.73,-52.666)"><g
                     id="g2063"><g
                       id="g2065"
                       transform="translate(-57.192,-19.385)"><text
                         transform="matrix(1,0,0,-1,57.192,28.351)"
                         style="font-variant:normal;font-size:7.9701px;font-family:NimbusRomNo9L;-inkscape-font-specification:NimbusRomNo9L-Regu;writing-mode:lr-tb;fill:#000000;fill-opacity:1;fill-rule:nonzero;stroke:none"
                         id="text2071"><tspan
                           x="0 4.4313755 9.3011065 15.055519"
                           y="0"
                           sodipodi:role="line"
                           id="tspan2067">SLAM</tspan><tspan
                           x="2.092 6.3241229 10.309173 14.294223 16.509911"
                           y="8.9659996"
                           sodipodi:role="line"
                           id="tspan2069">Topic</tspan></text><g
                         id="g2073"
                         transform="translate(57.192,19.385)" /></g></g><g
                     id="g2075"
                     transform="translate(-43.73,52.666)" /></g></g></g></g><g
             id="g2077"><g
               id="g2079"><path
                 d="m 104.23055,-44.52545 h -9.96277 c -1.10047,0 -1.99256,-0.89208 -1.99256,-1.99255 v -3.46694 c 0,-1.10046 0.89209,-1.99256 1.99256,-1.99256 h 9.96277 c 1.10047,0 1.99255,0.8921 1.99255,1.99256 v 3.46694 c 0,1.10047 -0.89208,1.99255 -1.99255,1.99255 z"
                 style="fill:#b3b3ff;fill-opacity:1;fill-rule:nonzero;stroke:#000000;stroke-width:0.3985;stroke-linecap:butt;stroke-linejoin:miter;stroke-miterlimit:10;stroke-dasharray:none;stroke-opacity:1"
                 id="path2081" /></g><g
               id="g2083"
               transform="translate(94.267,-49.915)"><g
                 id="g2085"><g
                   id="g2087"
                   transform="translate(-107.729,-22.136)"><text
                     transform="matrix(1,0,0,-0.98039216,107.769,22.136)"
                     style="font-variant:normal;font-size:5.08093px;font-family:NimbusRomNo9L;-inkscape-font-specification:NimbusRomNo9L-Regu;writing-mode:lr-tb;fill:#000000;fill-opacity:1;fill-rule:nonzero;stroke:none"
                     id="text2091"><tspan
                       x="0 3.3889775 6.2139726"
                       y="0"
                       sodipodi:role="line"
                       id="tspan2089">CPU</tspan></text><g
                     id="g2093"
                     transform="translate(107.729,22.136)" /></g></g><g
                 id="g2095"
                 transform="translate(-94.267,49.915)" /></g></g><g
             id="g2097"><g
               id="g2099"><path
                 d="m 124.15608,-44.52545 h -9.96277 c -1.10046,0 -1.99255,-0.89208 -1.99255,-1.99255 v -3.46694 c 0,-1.10046 0.89209,-1.99256 1.99255,-1.99256 h 9.96277 c 1.10048,0 1.99256,0.8921 1.99256,1.99256 v 3.46694 c 0,1.10047 -0.89208,1.99255 -1.99256,1.99255 z"
                 style="fill:#b3b3ff;fill-opacity:1;fill-rule:nonzero;stroke:#000000;stroke-width:0.3985;stroke-linecap:butt;stroke-linejoin:miter;stroke-miterlimit:10;stroke-dasharray:none;stroke-opacity:1"
                 id="path2101" /></g><g
               id="g2103"
               transform="translate(114.192,-49.915)"><g
                 id="g2105"><g
                   id="g2107"
                   transform="translate(-127.654,-22.136)"><text
                     transform="matrix(1,0,0,-0.98039216,127.694,22.136)"
                     style="font-variant:normal;font-size:5.08093px;font-family:NimbusRomNo9L;-inkscape-font-specification:NimbusRomNo9L-Regu;writing-mode:lr-tb;fill:#000000;fill-opacity:1;fill-rule:nonzero;stroke:none"
                     id="text2111"><tspan
                       x="0 3.3889775 6.2139726"
                       y="0"
                       sodipodi:role="line"
                       id="tspan2109">CPU</tspan></text><g
                     id="g2113"
                     transform="translate(127.654,22.136)" /></g></g><g
                 id="g2115"
                 transform="translate(-114.192,49.915)" /></g></g><g
             id="g2117"><g
               id="g2119"><path
                 d="m 102.23799,-45.52173 h -9.96277 c -1.10046,0 -1.99255,-0.89207 -1.99255,-1.99255 v -3.46694 c 0,-1.10046 0.89209,-1.99255 1.99255,-1.99255 h 9.96277 c 1.10048,0 1.99256,0.89209 1.99256,1.99255 v 3.46694 c 0,1.10048 -0.89208,1.99255 -1.99256,1.99255 z"
                 style="fill:#b3b3ff;fill-opacity:1;fill-rule:nonzero;stroke:#000000;stroke-width:0.3985;stroke-linecap:butt;stroke-linejoin:miter;stroke-miterlimit:10;stroke-dasharray:none;stroke-opacity:1"
                 id="path2121" /></g><g
               id="g2123"
               transform="translate(92.274,-50.911)"><g
                 id="g2125"><g
                   id="g2127"
                   transform="translate(-105.736,-21.14)"><text
                     transform="matrix(1,0,0,-0.98039216,105.777,21.14)"
                     style="font-variant:normal;font-size:5.08093px;font-family:NimbusRomNo9L;-inkscape-font-specification:NimbusRomNo9L-Regu;writing-mode:lr-tb;fill:#000000;fill-opacity:1;fill-rule:nonzero;stroke:none"
                     id="text2131"><tspan
                       x="0 3.3889775 6.2139726"
                       y="0"
                       sodipodi:role="line"
                       id="tspan2129">CPU</tspan></text><g
                     id="g2133"
                     transform="translate(105.736,21.14)" /></g></g><g
                 id="g2135"
                 transform="translate(-92.274,50.911)" /></g></g><g
             id="g2137"><g
               id="g2139"><path
                 d="m 122.16353,-45.52173 h -9.96277 c -1.10046,0 -1.99256,-0.89207 -1.99256,-1.99255 v -3.46694 c 0,-1.10046 0.8921,-1.99255 1.99256,-1.99255 h 9.96277 c 1.10047,0 1.99255,0.89209 1.99255,1.99255 v 3.46694 c 0,1.10048 -0.89208,1.99255 -1.99255,1.99255 z"
                 style="fill:#b3b3ff;fill-opacity:1;fill-rule:nonzero;stroke:#000000;stroke-width:0.3985;stroke-linecap:butt;stroke-linejoin:miter;stroke-miterlimit:10;stroke-dasharray:none;stroke-opacity:1"
                 id="path2141" /></g><g
               id="g2143"
               transform="translate(112.2,-50.911)"><g
                 id="g2145"><g
                   id="g2147"
                   transform="translate(-125.662,-21.14)"><text
                     transform="matrix(1,0,0,-0.98039216,125.702,21.14)"
                     style="font-variant:normal;font-size:5.08093px;font-family:NimbusRomNo9L;-inkscape-font-specification:NimbusRomNo9L-Regu;writing-mode:lr-tb;fill:#000000;fill-opacity:1;fill-rule:nonzero;stroke:none"
                     id="text2151"><tspan
                       x="0 3.3889775 6.2139726"
                       y="0"
                       sodipodi:role="line"
                       id="tspan2149">CPU</tspan></text><g
                     id="g2153"
                     transform="translate(125.662,21.14)" /></g></g><g
                 id="g2155"
                 transform="translate(-112.2,50.911)" /></g></g><g
             id="g2157"><g
               id="g2159"><path
                 d="m 100.24544,-46.518 h -9.96277 c -1.10047,0 -1.99255,-0.89208 -1.99255,-1.99256 v -3.46694 c 0,-1.10046 0.89208,-1.99255 1.99255,-1.99255 h 9.96277 c 1.10048,0 1.99255,0.89209 1.99255,1.99255 v 3.46694 c 0,1.10048 -0.89207,1.99256 -1.99255,1.99256 z"
                 style="fill:#b3b3ff;fill-opacity:1;fill-rule:nonzero;stroke:#000000;stroke-width:0.3985;stroke-linecap:butt;stroke-linejoin:miter;stroke-miterlimit:10;stroke-dasharray:none;stroke-opacity:1"
                 id="path2161" /></g><g
               id="g2163"
               transform="translate(90.282,-51.907)"><g
                 id="g2165"><g
                   id="g2167"
                   transform="translate(-103.744,-20.144)"><text
                     transform="matrix(1,0,0,-0.98039216,103.784,20.144)"
                     style="font-variant:normal;font-size:5.08093px;font-family:NimbusRomNo9L;-inkscape-font-specification:NimbusRomNo9L-Regu;writing-mode:lr-tb;fill:#000000;fill-opacity:1;fill-rule:nonzero;stroke:none"
                     id="text2171"><tspan
                       x="0 3.3889775 6.2139726"
                       y="0"
                       sodipodi:role="line"
                       id="tspan2169">CPU</tspan></text><g
                     id="g2173"
                     transform="translate(103.744,20.144)" /></g></g><g
                 id="g2175"
                 transform="translate(-90.282,51.907)" /></g></g><g
             id="g2177"><g
               id="g2179"><path
                 d="m 120.17097,-46.518 h -9.96277 c -1.10046,0 -1.99255,-0.89208 -1.99255,-1.99256 v -3.46694 c 0,-1.10046 0.89209,-1.99255 1.99255,-1.99255 h 9.96277 c 1.10048,0 1.99256,0.89209 1.99256,1.99255 v 3.46694 c 0,1.10048 -0.89208,1.99256 -1.99256,1.99256 z"
                 style="fill:#b3b3ff;fill-opacity:1;fill-rule:nonzero;stroke:#000000;stroke-width:0.3985;stroke-linecap:butt;stroke-linejoin:miter;stroke-miterlimit:10;stroke-dasharray:none;stroke-opacity:1"
                 id="path2181" /></g><g
               id="g2183"
               transform="translate(110.207,-51.907)"><g
                 id="g2185"><g
                   id="g2187"
                   transform="translate(-123.669,-20.144)"><text
                     transform="matrix(1,0,0,-0.98039216,123.709,20.144)"
                     style="font-variant:normal;font-size:5.08093px;font-family:NimbusRomNo9L;-inkscape-font-specification:NimbusRomNo9L-Regu;writing-mode:lr-tb;fill:#000000;fill-opacity:1;fill-rule:nonzero;stroke:none"
                     id="text2191"><tspan
                       x="0 3.3889775 6.2139726"
                       y="0"
                       sodipodi:role="line"
                       id="tspan2189">CPU</tspan></text><g
                     id="g2193"
                     transform="translate(123.669,20.144)" /></g></g><g
                 id="g2195"
                 transform="translate(-110.207,51.907)" /></g></g></g><g
           id="g2197" /></g></g></g></svg>
